<?xml version="1.0" encoding="utf-8"?>
<!-- Generator: Adobe Illustrator 24.1.2, SVG Export Plug-In . SVG Version: 6.00 Build 0)  -->
<svg version="1.1" id="Layer_1" xmlns="http://www.w3.org/2000/svg" xmlns:xlink="http://www.w3.org/1999/xlink" x="0px" y="0px"
	 viewBox="0 0 245.8 42.9" style="enable-background:new 0 0 245.8 42.9;" xml:space="preserve">
<style type="text/css">
	.st0{fill:#FFFFFF;}
	.st1{fill:#FFFFFF;fill-opacity:0.3;}
</style>
<g>
	<g>
		<path class="st0" d="M140.8,13V14h7.7c-0.5-0.7-1.4-0.9-2.6-0.9H140.8z"/>
		<path class="st0" d="M0.2,21.2h9.7c3.3,0,5.4-1.1,6.5-2.9H0.2V21.2z"/>
		<path class="st0" d="M4.1,12.2h5.5c1.8,0,2.9,0.6,3.2,1.8h4c-0.4-1.7-1.6-3.1-3.4-3.7c1.8-0.9,2.8-2.4,2.8-4.4
			c0-3.1-2.2-5.3-6.7-5.3H0.2V14h3.9V12.2z M4.1,3.7h5.1c2,0,3.1,1,3.1,2.6c0,1.7-1.1,2.8-3.1,2.8H4.1V3.7z"/>
		<path class="st0" d="M29.1,21.6c3.4,0,6-1.2,7.4-3.4H21.7C23.2,20.4,25.7,21.6,29.1,21.6z"/>
		<path class="st0" d="M24.3,13.4V0.5h-3.9v12.9c0,0.2,0,0.4,0,0.6h3.9C24.4,13.8,24.3,13.6,24.3,13.4z"/>
		<path class="st0" d="M37.7,13.4V0.5h-3.9v12.9c0,0.2,0,0.4,0,0.6h3.9C37.7,13.8,37.7,13.6,37.7,13.4z"/>
		<rect x="41.7" y="0.5" class="st0" width="3.9" height="13.5"/>
		<rect x="41.7" y="18.2" class="st0" width="13.8" height="2.9"/>
		<rect x="59.1" y="18.2" class="st0" width="13.8" height="2.9"/>
		<rect x="59.1" y="0.5" class="st0" width="3.9" height="13.5"/>
		<rect x="76.4" y="18.2" class="st0" width="15.2" height="2.9"/>
		<polygon class="st0" points="80.3,12.2 90.6,12.2 90.6,8.9 80.3,8.9 80.3,4 91.7,4 91.7,0.5 76.4,0.5 76.4,14 80.3,14 		"/>
		<polygon class="st0" points="106,4 112.6,4 112.6,0.5 95.4,0.5 95.4,4 102,4 102,14 106,14 		"/>
		<rect x="102" y="18.2" class="st0" width="4" height="2.9"/>
		<rect x="116.6" y="18.2" class="st0" width="3.9" height="2.9"/>
		<path class="st0" d="M120.5,13.9h5.2c4.6,0,7.3-2.6,7.3-6.7c0-4.1-2.7-6.7-7.3-6.7h-9.1V14L120.5,13.9L120.5,13.9z M120.5,3.8h5
			c2.3,0,3.5,1.2,3.5,3.4s-1.2,3.3-3.5,3.3h-5V3.8z"/>
		<rect x="136.9" y="18.2" class="st0" width="3.9" height="2.9"/>
		<path class="st0" d="M149.3,18.7c0,1.1,0.2,1.9,0.6,2.5h4c-0.4-0.6-0.6-1.4-0.6-2.4l0-0.5h-3.9L149.3,18.7z"/>
		<path class="st0" d="M140.8,13h5.1c1.2,0,2.1,0.3,2.6,0.9h4.3c-0.4-1.3-1.2-2.2-2.8-2.7c2.2-0.8,3.5-2.5,3.5-4.9
			c0-3.6-2.6-5.8-7.3-5.8h-9.4V14h3.9V13z M140.8,3.7h5.1c2.3,0,3.6,1,3.6,3.1c0,2.1-1.3,3.2-3.5,3.2h-5.2V3.7z"/>
		<path class="st0" d="M167.1,21.6c3.4,0,6.1-1.3,7.9-3.4h-15.8C161,20.3,163.7,21.6,167.1,21.6z"/>
		<path class="st0" d="M160.9,10.8c0-3.9,2-7.4,6.2-7.4c4.3,0,6.2,3.4,6.2,7.4c0,1.1-0.2,2.2-0.5,3.2h4.2c0.2-1,0.4-2.1,0.4-3.2
			c0-6.3-3.8-10.8-10.3-10.8c-6.5,0-10.3,4.5-10.3,10.8c0,1.1,0.1,2.2,0.4,3.2h4.2C161,13,160.9,11.9,160.9,10.8z"/>
		<path class="st0" d="M184.6,10.8c0-3.9,2-7.4,6.2-7.4c4.3,0,6.2,3.4,6.2,7.4c0,1.1-0.2,2.2-0.5,3.2h4.2c0.2-1,0.4-2.1,0.4-3.2
			c0-6.3-3.8-10.8-10.3-10.8c-6.5,0-10.3,4.5-10.3,10.8c0,1.1,0.1,2.2,0.4,3.2h4.2C184.8,13,184.6,11.9,184.6,10.8z"/>
		<path class="st0" d="M190.9,21.6c3.4,0,6.1-1.3,7.9-3.4H183C184.8,20.3,187.5,21.6,190.9,21.6z"/>
		<rect x="204.6" y="18.2" class="st0" width="3.9" height="2.9"/>
		<polygon class="st0" points="208.5,12.2 218.2,12.2 218.2,8.9 208.5,8.9 208.5,4 219.2,4 219.2,0.5 204.6,0.5 204.6,14 208.5,14 
					"/>
		<path class="st0" d="M245.4,16.4c-0.1-0.1-0.1-0.1-0.1-0.2c0-0.1-0.1-0.1-0.1-0.2c-0.1-0.1-0.1-0.3-0.2-0.4l0,0
			c0-0.1-0.1-0.1-0.1-0.1c0,0-0.1,0-0.1,0.1c0,0.2,0,0.4,0,0.6c0,0.1,0,0.2,0.1,0.3c0,0.1,0.1,0.2,0.1,0.3c0.1,0.1,0.1,0.3,0.2,0.4
			c-0.1,0-0.1,0-0.2,0c-0.1,0-0.3,0-0.4,0c-0.1,0-0.1,0-0.2,0c-0.1,0-0.1,0-0.2-0.1c-0.1,0-0.3-0.1-0.4-0.2l0,0c0,0-0.1,0-0.1,0
			c0,0,0,0.1,0,0.1c0.1,0.2,0.2,0.3,0.4,0.4c0.1,0.1,0.1,0.1,0.2,0.2c0.1,0,0.2,0.1,0.2,0.1c0.1,0,0.1,0.1,0.2,0.1l-0.8,0.4
			c0,0,0,0-0.1,0h-1.1c-0.1,0-0.1,0-0.1,0.1c0,0.1-0.1,0.1-0.1,0.1h-5.8c0,0,0,0-0.1,0l-0.4-0.3c0,0-0.1,0-0.1,0h-0.6
			c-0.1,0-0.2,0.1-0.2,0.2v0c0,0.1-0.1,0.1-0.1,0.1h-0.5c-0.2,0-0.3-0.8-0.3-2.1c0-1,0.1-2.1,0.3-2.1h0.5c0.1,0,0.2,0.1,0.2,0.2v0
			c0,0.1,0.1,0.2,0.2,0.2h0.6c0,0,0.1,0,0.1,0l0.4-0.3c0,0,0,0,0.1,0h5.8c0.1,0,0.2,0.1,0.2,0.1l0,0l0,0c0,0,0,0,0,0h1.2v0l1.7,0.9
			c0.3,0.1,0.3,0.5,0.3,0.9c0,0.1,0,0.1,0,0.2v0c0,0.1,0,0.2,0,0.3c0,0.1,0,0.3,0,0.4c0,0-0.1-0.1-0.1-0.1
			C245.6,16.6,245.5,16.5,245.4,16.4z"/>
		<rect x="218.2" y="14" class="st1" width="13.8" height="4.3"/>
	</g>
	<g>
		<g>
			<path class="st0" d="M0,37.9c0-2.9,1.6-5,4.6-5c2.3,0,3.9,1.2,4.3,3.5H7.1c-0.3-1.3-1.3-1.9-2.5-1.9c-1.7,0-2.7,1.3-2.7,3.4
				c0,2.1,1,3.4,2.7,3.4c1.3,0,2.4-0.8,2.6-2.2H9c-0.2,2.4-2,3.8-4.4,3.8C1.7,42.9,0,40.7,0,37.9z"/>
			<path class="st0" d="M14.4,39.1v-5.9h1.8v6c0,1.5,0.8,2.2,2.2,2.2c1.4,0,2.2-0.8,2.2-2.2v-6h1.8v5.9c0,2.4-1.5,3.8-4,3.8
				C16,42.9,14.4,41.5,14.4,39.1z"/>
			<path class="st0" d="M27.8,39.5h1.8c0,1.4,0.9,1.9,2.4,1.9c1.2,0,1.9-0.5,1.9-1.4c0-0.7-0.5-1.1-2-1.4l-0.8-0.2
				c-2-0.4-3.1-1.4-3.1-2.9c0-1.6,1.3-2.7,3.5-2.7c2.6,0,3.8,1.2,3.9,3.1h-1.8c-0.1-1.1-0.7-1.6-2.1-1.6c-1.1,0-1.7,0.4-1.7,1.2
				c0,0.8,0.5,1.1,1.9,1.4l0.8,0.2c2.2,0.4,3.2,1.3,3.2,2.8c0,1.9-1.4,2.9-3.9,2.9C29.3,42.9,27.8,41.7,27.8,39.5z"/>
			<path class="st0" d="M48.1,33.1v1.6h-3.1v7.9h-1.8v-7.9h-3.1v-1.6H48.1z"/>
			<path class="st0" d="M52.5,37.9c0-2.9,1.8-5,4.8-5c3,0,4.8,2.1,4.8,5c0,2.9-1.8,5-4.8,5C54.3,42.9,52.5,40.8,52.5,37.9z
				 M57.2,41.3c2,0,2.9-1.6,2.9-3.4s-0.9-3.4-2.9-3.4c-2,0-2.9,1.6-2.9,3.4C54.4,39.7,55.3,41.3,57.2,41.3z"/>
			<path class="st0" d="M75.1,33.1h2.6v9.5H76v-2.9c0-1.6,0-3.2,0.1-4.7c-0.2,0.6-0.4,1.4-0.7,2.2l-1.9,5.4H72L70,37.2
				c-0.3-0.9-0.5-1.6-0.7-2.2c0,1.5,0.1,3.1,0.1,4.7v2.9h-1.7v-9.5h2.6l1.6,4.6c0.3,0.8,0.5,1.7,0.8,2.6c0.3-1,0.6-1.9,0.8-2.7
				L75.1,33.1z"/>
			<path class="st0" d="M83.3,39.5h1.8c0,1.4,0.9,1.9,2.4,1.9c1.2,0,1.9-0.5,1.9-1.4c0-0.7-0.5-1.1-2-1.4l-0.8-0.2
				c-2-0.4-3.1-1.4-3.1-2.9c0-1.6,1.3-2.7,3.5-2.7c2.6,0,3.8,1.2,3.9,3.1h-1.8c-0.1-1.1-0.7-1.6-2.1-1.6c-1.1,0-1.7,0.4-1.7,1.2
				c0,0.8,0.5,1.1,1.9,1.4l0.8,0.2c2.2,0.4,3.2,1.3,3.2,2.8c0,1.9-1.4,2.9-3.9,2.9C84.8,42.9,83.3,41.7,83.3,39.5z"/>
		</g>
		<g>
			<path class="st0" d="M95.4,41l-0.3,0.8l-0.1,0.3c0-0.1-0.1-0.2-0.1-0.3L94.5,41h-0.3v1.5h0.3V42c0-0.2,0-0.4,0-0.5l0.4,1h0.2
				l0.4-0.9c0,0,0,0,0-0.1c0,0.1,0,0.3,0,0.5v0.5h0.3V41H95.4z"/>
			<polygon class="st0" points="92.8,41.3 93.3,41.3 93.3,42.5 93.5,42.5 93.5,41.3 94,41.3 94,41 92.8,41 			"/>
		</g>
	</g>
</g>
</svg>
